# xmcd CD database file
#
# Track frame offsets:
#	150
#	21942
#	44990
#	69882
#	93782
#	113027
#	134550
#	160445
#	184087
#	213295
#
# Disc length: 3583 seconds
#
# Revision: 8
# Processed by: cddbd v1.5PL3 Copyright (c) Steve Scherf et al.
# Submitted via: CDex 1.50beta8
#
DISCID=8c0dfd0a
DTITLE=中島みゆき - わたしの子供になりなさい
DYEAR=1998
DGENRE=Japanese Folk
TTITLE0=わたしの子供になりなさい
TTITLE1=下町の上、山の手の下
TTITLE2=命の別名
TTITLE3=清流
TTITLE4=私たちは春の中で
TTITLE5=愛情物語
TTITLE6=You Don't Know
TTITLE7=木曜の夜
TTITLE8=紅灯の海
TTITLE9=4.2.3.
EXTD=YEAR: 1998
EXTT0=
EXTT1=
EXTT2=
EXTT3=
EXTT4=
EXTT5=
EXTT6=
EXTT7=
EXTT8=
EXTT9=
PLAYORDER=
